<svg id="Layer_1" data-name="Layer 1" xmlns="http://www.w3.org/2000/svg" viewBox="0 0 554.64 587.44"><defs><style>.cls-1{fill:#9e9e9e;}.cls-2{fill:#ff9800;}</style></defs><title>logo</title><g id="HS_GH" data-name="HS GH"><path class="cls-1" d="M107.64,297.79H43.47q-7.87,0-11.39-3.42t-3.52-11.06V22.82q0-7.63,3.52-11.06T43.47,8.35h64.17q7.86,0,11.38,3.42t3.52,11.06v87.23h69.14V22.82q0-7.63,3.52-11.06t11.38-3.42h64.17q7.86,0,11.39,3.42t3.52,11.06v260.5q0,7.64-3.52,11.06t-11.39,3.42H206.59q-7.87,0-11.38-3.42t-3.52-11.06V194.08H122.54v89.24q0,7.64-3.52,11.06T107.64,297.79Z" transform="translate(-28.57 -8.35)"/><path class="cls-1" d="M496.26,297.79H363.54q-8,0-11.55-3.42t-3.57-11.06v-47q0-7.63,3.57-11.06t11.55-3.42h113q5.45,0,8.19-3.42a12.8,12.8,0,0,0,2.73-8.24q0-6.83-2.73-10t-8.19-3.62l-63-8.44q-29.4-4-47.25-18.49t-17.85-48.24V79.1q0-34.16,23.1-52.46T435.36,8.35H553q8,0,11.55,3.42t3.57,11.06V70.66q0,7.64-3.57,11.05T553,85.13H455.1q-5.46,0-8.4,3.42a12.78,12.78,0,0,0-2.94,8.64A13.56,13.56,0,0,0,446.7,106a11.32,11.32,0,0,0,8.4,4l62.58,8q29.39,4,47.46,18.49t18.06,48.24V227q0,34.17-23.31,52.46T496.26,297.79Z" transform="translate(-28.57 -8.35)"/><path class="cls-1" d="M266,595.79H133.68q-52.51,0-77.91-20.1T30.36,513.79V388.36q0-41.81,25.41-61.91t77.91-20.1h105q8,0,11.55,3.42t3.57,11.05v48.64q0,7.64-3.57,11.06t-11.55,3.42H151.32q-13,0-19.32,5T125.7,404v96.08q0,10.05,4.83,14.87T145,519.82h40.74V457.1q0-7.63,3.57-11.05t11.55-3.42H266q8,0,11.55,3.42t3.57,11.05V581.32q0,7.64-3.57,11.05T266,595.79Z" transform="translate(-28.57 -8.35)"/><path class="cls-2" d="M420.87,595.79h-57.2q-7,0-10.15-3.42t-3.14-11.05V320.83q0-7.63,3.14-11.05t10.15-3.42h57.2q7,0,10.15,3.42t3.14,11.05v87.23h61.62V320.83q0-7.63,3.14-11.05t10.15-3.42h57.2q7,0,10.15,3.42t3.14,11.05v260.5q0,7.64-3.14,11.05t-10.15,3.42h-57.2q-7,0-10.15-3.42t-3.14-11.05V492.08H434.16v89.24q0,7.64-3.14,11.05T420.87,595.79Z" transform="translate(-28.57 -8.35)"/></g></svg>